<?xml version="1.0" encoding="UTF-8"?>
<svg version="1.1" xmlns="http://www.w3.org/2000/svg" width="612" height="612">
<path d="M0 0 C201.96 0 403.92 0 612 0 C612 201.96 612 403.92 612 612 C410.04 612 208.08 612 0 612 C0 410.04 0 208.08 0 0 Z " fill="#FEFEFE" transform="translate(0,0)"/>
<path d="M0 0 C1.04671875 -0.020625 2.0934375 -0.04125 3.171875 -0.0625 C9.79958268 -0.09563854 15.14140137 0.68055761 21.25 3.25 C22.39984375 3.71277344 23.5496875 4.17554688 24.734375 4.65234375 C37.51724018 10.66151363 48.02554776 19.33051837 54.25 32.25 C54.63542969 32.98734375 55.02085937 33.7246875 55.41796875 34.484375 C61.2906534 46.44175458 62.70113468 63.1620557 58.875 76 C58.35490105 77.42472604 57.81566229 78.8427426 57.25 80.25 C56.858125 81.44625 56.46625 82.6425 56.0625 83.875 C55.794375 84.65875 55.52625 85.4425 55.25 86.25 C54.59 86.25 53.93 86.25 53.25 86.25 C52.9715625 87.425625 52.9715625 87.425625 52.6875 88.625 C49.71377314 96.12396339 44.87677358 102.62666959 38.25 107.25 C37.59 107.25 36.93 107.25 36.25 107.25 C36.25 107.91 36.25 108.57 36.25 109.25 C16.71328214 119.75264 16.71328214 119.75264 7.25 120.25 C6.115625 120.32863281 4.98125 120.40726562 3.8125 120.48828125 C-7.93926312 120.91673095 -19.31951823 118.85899559 -29.75 113.25 C-29.75 112.59 -29.75 111.93 -29.75 111.25 C-30.554375 111.085 -31.35875 110.92 -32.1875 110.75 C-39.7764727 107.55464307 -45.52427114 101.20200554 -49.75 94.25 C-49.75 93.26 -49.75 92.27 -49.75 91.25 C-50.41 91.25 -51.07 91.25 -51.75 91.25 C-58.24279088 81.0873708 -59.99896034 71.47462354 -60.0625 59.5625 C-60.06805908 58.68368164 -60.07361816 57.80486328 -60.0793457 56.89941406 C-59.91880075 42.2939396 -54.22634331 27.69870124 -43.75 17.25 C-43.09 17.25 -42.43 17.25 -41.75 17.25 C-41.42 16.26 -41.09 15.27 -40.75 14.25 C-28.29231835 4.14003085 -15.71733151 0.07629773 0 0 Z " fill="#FA5906" transform="translate(427.75,185.75)"/>
<path d="M0 0 C0 0.66 0 1.32 0 2 C-1.91059187 3.33398584 -3.82038456 4.5477636 -5.8125 5.75 C-20.33138427 14.82123423 -33.77113403 25.25663122 -46.51220703 36.67089844 C-48.36336627 38.32460879 -50.24369067 39.94324415 -52.125 41.5625 C-64.77978049 52.68997939 -77.47808147 64.21205009 -88.375 77.09765625 C-90.29772282 79.34853609 -92.30636031 81.51069912 -94.3125 83.6875 C-99.02268753 88.9210417 -103.32912221 94.42198838 -107.54443359 100.05566406 C-108.57520953 101.43256771 -109.60977136 102.80664091 -110.64697266 104.17871094 C-118.67259446 114.80329772 -126.21601301 125.54172833 -133 137 C-133.68328369 138.13864502 -133.68328369 138.13864502 -134.38037109 139.30029297 C-140.76196901 149.97225838 -146.56920362 160.87864358 -152 172.0625 C-152.80981323 173.72019409 -152.80981323 173.72019409 -153.63598633 175.41137695 C-156.5716325 181.55844911 -159.01328286 187.67092434 -161.06835938 194.16430664 C-161.94851201 196.84328274 -162.94996208 199.42023166 -164.03125 202.0234375 C-166.24750626 207.44936958 -167.89397585 212.99276567 -169.5 218.625 C-169.95064819 220.18637695 -169.95064819 220.18637695 -170.41040039 221.77929688 C-172.80311077 230.1405656 -174.99630048 238.53716973 -177 247 C-177.66 247 -178.32 247 -179 247 C-169.72194468 170.07648681 -122.3511594 90.95350924 -61.53515625 43.03515625 C-58.96401253 40.97111021 -56.5474952 38.7983503 -54.125 36.5625 C-40.70049558 24.38139551 -25.41417874 13.94207529 -10.125 4.25 C-9.11699341 3.60417969 -9.11699341 3.60417969 -8.08862305 2.9453125 C-3.36161592 0 -3.36161592 0 0 0 Z " fill="#151515" transform="translate(368,291)"/>
<path d="M0 0 C6.15201409 1.5405373 10.89013563 4.98449537 16.0625 8.5 C16.99771484 9.1300293 17.93292969 9.76005859 18.89648438 10.40917969 C26.16357135 15.34346646 33.1193404 20.544169 40 26 C41.10582559 26.84280061 42.21396116 27.68257773 43.32421875 28.51953125 C49.36200423 33.07692759 55.1649872 37.78874225 60.734375 42.91796875 C62.80892036 44.8244044 64.92265931 46.6676561 67.0625 48.5 C71.59624621 52.44637828 75.78620118 56.71811467 80 61 C82.65407674 63.66715101 85.32230115 66.31790768 88.015625 68.9453125 C94.83523648 75.6264973 101.12496979 82.45849488 107 90 C108.10351989 91.38723349 109.20774159 92.77390888 110.3125 94.16015625 C122.59281292 109.6531958 133.08198262 125.90678774 143 143 C143.37366699 143.64372559 143.74733398 144.28745117 144.13232422 144.95068359 C159.76549233 172.22827947 179.71278934 214.45700255 178 247 C177.34 247 176.68 247 176 247 C175.79246094 245.9790625 175.58492187 244.958125 175.37109375 243.90625 C171.2885982 224.40885371 165.77099234 205.35382959 158 187 C157.68949707 186.26088379 157.37899414 185.52176758 157.05908203 184.76025391 C152.57077345 174.15380403 147.51333186 163.93474622 141.99462891 153.82910156 C141.13305525 152.24468579 140.28946319 150.650517 139.44921875 149.0546875 C129.61214628 130.48894508 117.28713885 113.22833093 104.24609375 96.7890625 C103 95 103 95 103 93 C102.34 93 101.68 93 101 93 C99.43567213 91.30725716 97.94671428 89.54430148 96.5 87.75 C95.7059375 86.77546875 94.911875 85.8009375 94.09375 84.796875 C92.41251966 82.55105238 91.11864101 80.5534197 90 78 C89.34 78 88.68 78 88 78 C86.5546875 76.53125 86.5546875 76.53125 84.875 74.5 C81.62106119 70.6500766 78.15227282 67.13935665 74.50390625 63.6640625 C73 62 73 62 73 60 C72.34 60 71.68 60 71 60 C71 59.34 71 58.68 71 58 C70.10486694 57.59599976 70.10486694 57.59599976 69.19165039 57.18383789 C66.99977436 55.99987812 65.64442964 54.8495338 63.93359375 53.05859375 C63.3713208 52.47940186 62.80904785 51.90020996 62.22973633 51.3034668 C61.34257935 50.37981323 61.34257935 50.37981323 60.4375 49.4375 C54.61174861 43.49197389 48.54920266 38.14580209 42 33 C40.26908431 31.5646065 38.53996023 30.12705019 36.8125 28.6875 C26.46998998 20.24283321 15.80419145 12.26757808 4.52050781 5.12133789 C2.98101769 4.12984784 1.48514399 3.07118144 0 2 C0 1.34 0 0.68 0 0 Z " fill="#121212" transform="translate(0,291)"/>
<path d="M0 0 C0.66 0 1.32 0 2 0 C1.5224966 5.53903949 0.4986355 9.00272901 -2 14 C-2.52066218 16.6763009 -2.76524548 19.27684753 -3 22 C-2.14728516 21.7834375 -2.14728516 21.7834375 -1.27734375 21.5625 C3.54906586 20.40222791 8.00418708 19.50041871 13 20 C16.50977285 22.43183278 16.85266967 25.67236365 17.6875 29.6875 C17.93886719 30.86699219 18.19023437 32.04648437 18.44921875 33.26171875 C18.63097656 34.16535156 18.81273437 35.06898438 19 36 C22.23534844 34.62826768 23.78496541 33.21471703 25.8125 30.375 C28.04970721 27.72596857 28.72063445 27.07668858 32.1875 26.125 C37.06360871 27.24410692 40.45978915 29.54552462 44.546875 32.37109375 C46.97347082 34.13634705 46.97347082 34.13634705 50 35 C50.12375 34.21625 50.2475 33.4325 50.375 32.625 C51 30 51 30 53 28 C55.8203125 27.8046875 55.8203125 27.8046875 59.125 27.875 C60.22070312 27.89304687 61.31640625 27.91109375 62.4453125 27.9296875 C63.28835937 27.95289063 64.13140625 27.97609375 65 28 C64.484375 27.443125 63.96875 26.88625 63.4375 26.3125 C62 24 62 24 63 19 C71.415 18.505 71.415 18.505 80 18 C75.90940199 12.88137594 75.90940199 12.88137594 71.1875 9.25 C70.135625 8.5075 69.08375 7.765 68 7 C68 6.34 68 5.68 68 5 C74.29945602 7.22333742 79.79222147 10.77215395 84 16 C83.9375 18.75 83.9375 18.75 83 21 C79.99686252 22.50156874 77.20932478 22.09281204 73.875 22.0625 C72.59367187 22.05347656 71.31234375 22.04445313 69.9921875 22.03515625 C68.51105469 22.01775391 68.51105469 22.01775391 67 22 C67.50015625 22.77859375 68.0003125 23.5571875 68.515625 24.359375 C70 27 70 27 69.75 29.25 C69 31 69 31 68 32 C65.81707226 32.23481693 63.62796826 32.41363323 61.4375 32.5625 C60.23996094 32.64628906 59.04242188 32.73007812 57.80859375 32.81640625 C56.88175781 32.87699219 55.95492187 32.93757812 55 33 C54.01 35.31 53.02 37.62 52 40 C45.7693825 39.86743367 42.86734528 37.65334056 38.30859375 33.49609375 C35.2628721 31.52230121 33.56425135 31.40595811 30 32 C27.74245463 33.93482751 27.74245463 33.93482751 25.9375 36.5 C22.64230756 40.86663538 22.64230756 40.86663538 19.44140625 41.53125 C17 41 17 41 15.26171875 39.421875 C13.66859827 36.36387284 13.25631504 33.66396185 12.8125 30.25 C12.65394531 29.07953125 12.49539062 27.9090625 12.33203125 26.703125 C12.22246094 25.81109375 12.11289063 24.9190625 12 24 C7.85906302 23.79029441 7.85906302 23.79029441 4 25 C2.125 25.203125 2.125 25.203125 0 25.25 C-0.70125 25.27578125 -1.4025 25.3015625 -2.125 25.328125 C-2.74375 25.21984375 -3.3625 25.1115625 -4 25 C-6.36625402 21.45061897 -6.75323108 19.09846324 -6 15 C-4.86155005 12.10473341 -3.57462327 9.33691924 -2.19140625 6.55078125 C-1.15888865 4.340178 -0.48481917 2.37951479 0 0 Z " fill="#181818" transform="translate(144,535)"/>
<path d="M0 0 C0.78515625 1.62109375 0.78515625 1.62109375 1 4 C-0.43736153 6.20395435 -1.86504587 8.07399661 -3.5625 10.0625 C-4.58597484 11.3142511 -5.60666752 12.56828064 -6.625 13.82421875 C-7.17285156 14.49630371 -7.72070312 15.16838867 -8.28515625 15.86083984 C-17.74025904 27.65548828 -26.24214103 40.03745536 -34 53 C-34.96292969 54.59134766 -34.96292969 54.59134766 -35.9453125 56.21484375 C-37.30613041 58.47126973 -38.65876766 60.73189979 -40 63 C-41.5625 61.8125 -41.5625 61.8125 -43 60 C-42.27154029 43.55362126 -21.02387881 22.09609813 -11.35888672 9.74145508 C-10.16660231 8.21350598 -8.99377757 6.67041345 -7.82421875 5.125 C-5.55288174 2.47915988 -3.17302295 1.370169 0 0 Z " fill="#0E0E0E" transform="translate(269,375)"/>
<path d="M0 0 C6.15201409 1.5405373 10.89013563 4.98449537 16.0625 8.5 C16.99771484 9.1300293 17.93292969 9.76005859 18.89648438 10.40917969 C26.16357135 15.34346646 33.1193404 20.544169 40 26 C41.10582559 26.84280061 42.21396116 27.68257773 43.32421875 28.51953125 C49.356712 33.07293294 55.15720341 37.77807067 60.71875 42.90625 C62.87621783 44.88639171 65.08230356 46.7901687 67.3125 48.6875 C70.60412767 51.54514025 73.31986073 54.56607156 76 58 C74.35 58.66 72.7 59.32 71 60 C71 59.34 71 58.68 71 58 C70.10486694 57.59599976 70.10486694 57.59599976 69.19165039 57.18383789 C66.99977436 55.99987812 65.64442964 54.8495338 63.93359375 53.05859375 C63.3713208 52.47940186 62.80904785 51.90020996 62.22973633 51.3034668 C61.34257935 50.37981323 61.34257935 50.37981323 60.4375 49.4375 C54.61174861 43.49197389 48.54920266 38.14580209 42 33 C40.26908431 31.5646065 38.53996023 30.12705019 36.8125 28.6875 C26.46998998 20.24283321 15.80419145 12.26757808 4.52050781 5.12133789 C2.98101769 4.12984784 1.48514399 3.07118144 0 2 C0 1.34 0 0.68 0 0 Z " fill="#151515" transform="translate(0,291)"/>
<path d="M0 0 C0.66 0 1.32 0 2 0 C8.34118875 15.1191251 13.92565725 30.11464117 18 46 C18.19819336 46.75700195 18.39638672 47.51400391 18.60058594 48.29394531 C24.39716409 70.45388235 24.39716409 70.45388235 24 78 C23.34 78 22.68 78 22 78 C21.79246094 76.9790625 21.58492187 75.958125 21.37109375 74.90625 C17.44226276 56.14273296 12.1623356 37.82308669 4.85839844 20.09033203 C3.67550931 17.20981534 2.52756938 14.31573983 1.37719727 11.42211914 C0.25876407 8.6117918 -0.87023549 5.80578877 -2 3 C-1.34 3 -0.68 3 0 3 C0 2.01 0 1.02 0 0 Z " fill="#191919" transform="translate(154,460)"/>
<path d="M0 0 C0.66 0 1.32 0 2 0 C1.5224966 5.53903949 0.4986355 9.00272901 -2 14 C-2.52066218 16.6763009 -2.76524548 19.27684753 -3 22 C-2.14728516 21.7834375 -2.14728516 21.7834375 -1.27734375 21.5625 C3.54906586 20.40222791 8.00418708 19.50041871 13 20 C16.50977285 22.43183278 16.85266967 25.67236365 17.6875 29.6875 C17.93886719 30.86699219 18.19023437 32.04648437 18.44921875 33.26171875 C18.63097656 34.16535156 18.81273437 35.06898438 19 36 C19.99 36 20.98 36 22 36 C22 36.66 22 37.32 22 38 C21.34 38 20.68 38 20 38 C20 38.66 20 39.32 20 40 C20.66 40.33 21.32 40.66 22 41 C19.6875 41.25 19.6875 41.25 17 41 C13.79688067 37.79688067 13.38335595 34.6411996 12.8125 30.25 C12.65394531 29.07953125 12.49539062 27.9090625 12.33203125 26.703125 C12.22246094 25.81109375 12.11289063 24.9190625 12 24 C7.85906302 23.79029441 7.85906302 23.79029441 4 25 C2.125 25.203125 2.125 25.203125 0 25.25 C-0.70125 25.27578125 -1.4025 25.3015625 -2.125 25.328125 C-2.74375 25.21984375 -3.3625 25.1115625 -4 25 C-6.36625402 21.45061897 -6.75323108 19.09846324 -6 15 C-4.86155005 12.10473341 -3.57462327 9.33691924 -2.19140625 6.55078125 C-1.15888865 4.340178 -0.48481917 2.37951479 0 0 Z " fill="#151515" transform="translate(144,535)"/>
<path d="M0 0 C0.18657449 3.70939541 -0.27920865 6.20206921 -1.78125 9.5859375 C-4.12315228 15.15826308 -5.84386984 20.81704679 -7.5 26.625 C-7.80043213 27.66591797 -8.10086426 28.70683594 -8.41040039 29.77929688 C-10.80311077 38.1405656 -12.99630048 46.53716973 -15 55 C-15.66 55 -16.32 55 -17 55 C-15.00314169 38.44422931 -10.90451985 22.91856284 -6 7 C-5.46052734 5.19402344 -5.46052734 5.19402344 -4.91015625 3.3515625 C-3.78464434 0.44358753 -3.09167766 0 0 0 Z " fill="#1D1D1D" transform="translate(206,483)"/>
<path d="M0 0 C0 0.66 0 1.32 0 2 C-1.9105811 3.33397832 -3.82017779 4.54811878 -5.8125 5.75 C-12.02725532 9.62097925 -17.98064855 13.7828297 -23.875 18.125 C-25.05026245 18.98496582 -25.05026245 18.98496582 -26.24926758 19.86230469 C-31.39071221 23.67142749 -36.24968679 27.71384449 -41 32 C-41.33 31.01 -41.66 30.02 -42 29 C-42.66 28.67 -43.32 28.34 -44 28 C-32.82927695 19.58542488 -21.5605604 11.45526332 -9.68847656 4.05322266 C-8.18675467 3.11649214 -6.69786239 2.15926409 -5.2109375 1.19921875 C-3 0 -3 0 0 0 Z " fill="#1E1E1E" transform="translate(368,291)"/>
<path d="M0 0 C6.15222874 1.54059105 10.88973821 4.98476477 16.0625 8.5 C17.45118286 9.43416748 17.45118286 9.43416748 18.86791992 10.38720703 C26.13755781 15.31802803 33.15831276 20.49110898 40 26 C39.01 26.99 38.02 27.98 37 29 C36.03320312 28.21496094 35.06640625 27.42992187 34.0703125 26.62109375 C25.85509881 19.97950144 17.58914012 13.63060949 8.72265625 7.87109375 C7.61792969 7.15050781 6.51320313 6.42992187 5.375 5.6875 C4.35148438 5.03136719 3.32796875 4.37523437 2.2734375 3.69921875 C1.52320312 3.13847656 0.77296875 2.57773437 0 2 C0 1.34 0 0.68 0 0 Z " fill="#1B1B1B" transform="translate(0,291)"/>
<path d="M0 0 C0.66 0 1.32 0 2 0 C1.5224966 5.53903949 0.4986355 9.00272901 -2 14 C-2.52066218 16.6763009 -2.76524548 19.27684753 -3 22 C0.96 21.505 0.96 21.505 5 21 C5.33 21.99 5.66 22.98 6 24 C3.78704384 25.10647808 2.45327301 25.19588368 0 25.25 C-0.70125 25.27578125 -1.4025 25.3015625 -2.125 25.328125 C-2.74375 25.21984375 -3.3625 25.1115625 -4 25 C-6.36625402 21.45061897 -6.75323108 19.09846324 -6 15 C-4.86155005 12.10473341 -3.57462327 9.33691924 -2.19140625 6.55078125 C-1.15888865 4.340178 -0.48481917 2.37951479 0 0 Z " fill="#232323" transform="translate(144,535)"/>
<path d="M0 0 C0.99 0.66 1.98 1.32 3 2 C2.87955322 2.54019775 2.75910645 3.08039551 2.63500977 3.63696289 C1.73674192 7.67158514 0.84415796 11.70729526 -0.03515625 15.74609375 C-0.54882812 18.09179688 -0.54882812 18.09179688 -1.0625 20.4375 C-1.23587891 21.23865234 -1.40925781 22.03980469 -1.58789062 22.86523438 C-2.88721805 28.77443609 -2.88721805 28.77443609 -4 31 C-4.66 31 -5.32 31 -6 31 C-5.36668641 25.60175559 -4.57246339 20.27735774 -3.5625 14.9375 C-3.44068359 14.26912109 -3.31886719 13.60074219 -3.19335938 12.91210938 C-2.36809181 8.51210769 -1.28596647 4.28098794 0 0 Z " fill="#232323" transform="translate(195,507)"/>
<path d="M0 0 C0.66 0 1.32 0 2 0 C5.67029227 7.50741601 7.45336783 15.61269523 7 24 C6.525625 23.34 6.05125 22.68 5.5625 22 C5.046875 21.34 4.53125 20.68 4 20 C3.67 20 3.34 20 3 20 C2.87882812 19.34773438 2.75765625 18.69546875 2.6328125 18.0234375 C1.88246641 14.11009406 1.1376045 10.39108648 -0.1875 6.625 C-1.03840273 3.87592963 -1.01838661 2.64780517 0 0 Z " fill="#F85E0C" transform="translate(481,220)"/>
<path d="M0 0 C3 0.25 3 0.25 5 2.25 C4 3.25 4 3.25 1.4375 3.3125 C0.2309375 3.2815625 0.2309375 3.2815625 -1 3.25 C-1.13277344 3.81589844 -1.26554688 4.38179687 -1.40234375 4.96484375 C-1.66724609 6.06505859 -1.66724609 6.06505859 -1.9375 7.1875 C-2.11152344 7.91839844 -2.28554687 8.64929688 -2.46484375 9.40234375 C-3 11.25 -3 11.25 -4 12.25 C-6.33944736 11.96269945 -8.6739143 11.63063221 -11 11.25 C-11.33 10.26 -11.66 9.27 -12 8.25 C-9.69 8.25 -7.38 8.25 -5 8.25 C-5.04125 7.30125 -5.0825 6.3525 -5.125 5.375 C-4.95580103 1.14502578 -4.21852231 0.35154353 0 0 Z " fill="#0A0A0A" transform="translate(200,562.75)"/>
<path d="M0 0 C2.28343143 2.28343143 2.45372942 3.26191456 3.0703125 6.359375 C3.24433594 7.22820313 3.41835937 8.09703125 3.59765625 8.9921875 C3.85869141 10.35730469 3.85869141 10.35730469 4.125 11.75 C4.30675781 12.64460937 4.48851562 13.53921875 4.67578125 14.4609375 C5.573715 19.03837423 6.23293258 23.31029064 6 28 C5.34 28 4.68 28 4 28 C3.73445312 26.7934375 3.46890625 25.586875 3.1953125 24.34375 C2.83859941 22.72915391 2.48182532 21.11457129 2.125 19.5 C1.95097656 18.70851563 1.77695313 17.91703125 1.59765625 17.1015625 C1.42363281 16.31523438 1.24960938 15.52890625 1.0703125 14.71875 C0.89790039 13.93371094 0.72548828 13.14867187 0.54785156 12.33984375 C0.01121668 10.04790583 -0.61977695 7.79663466 -1.2578125 5.53125 C-1.50273437 4.3659375 -1.74765625 3.200625 -2 2 C-1.34 1.34 -0.68 0.68 0 0 Z " fill="#232323" transform="translate(172,510)"/>
<path d="M0 0 C6.29945602 2.22333742 11.79222147 5.77215395 16 11 C15.8125 13.8125 15.8125 13.8125 15 16 C13.68 16.33 12.36 16.66 11 17 C11 16.34 11 15.68 11 15 C9.35 15 7.7 15 6 15 C6 14.67 6 14.34 6 14 C7.98 13.67 9.96 13.34 12 13 C9.30183405 9.484208 6.86075311 6.75109714 3.1875 4.25 C2.135625 3.5075 1.08375 2.765 0 2 C0 1.34 0 0.68 0 0 Z " fill="#252525" transform="translate(212,540)"/>
<path d="M0 0 C0.99 0 1.98 0 3 0 C5.87217429 7.02680781 7.67021516 13.39845954 8 21 C7.34 21.33 6.68 21.66 6 22 C4.9929564 18.8980736 3.99559195 15.79311902 3 12.6875 C2.71382812 11.80642578 2.42765625 10.92535156 2.1328125 10.01757812 C1.86210937 9.17001953 1.59140625 8.32246094 1.3125 7.44921875 C1.06113281 6.66893311 0.80976563 5.88864746 0.55078125 5.0847168 C0 3 0 3 0 0 Z " fill="#202020" transform="translate(164,490)"/>
<path d="M0 0 C2.97 0 5.94 0 9 0 C8.67 1.32 8.34 2.64 8 4 C8.22757731 6.16299211 8.22757731 6.16299211 9 8 C9.66 8.33 10.32 8.66 11 9 C9.02 9.99 9.02 9.99 7 11 C7 10.34 7 9.68 7 9 C6.05125 8.731875 5.1025 8.46375 4.125 8.1875 C1 7 1 7 -1 4 C-0.34 4 0.32 4 1 4 C0.67 2.68 0.34 1.36 0 0 Z " fill="#F56013" transform="translate(391,288)"/>
<path d="M0 0 C1.43085938 0.24943359 1.43085938 0.24943359 2.890625 0.50390625 C8.35244461 1.28632703 13.82334586 1.01077738 19.32421875 0.87304688 C20.14019531 0.86208984 20.95617187 0.85113281 21.796875 0.83984375 C22.90047363 0.81458618 22.90047363 0.81458618 24.02636719 0.78881836 C26 1 26 1 29 3 C27 5 27 5 25.0546875 5.1953125 C23.03645833 5.13020833 21.01822917 5.06510417 19 5 C19 4.34 19 3.68 19 3 C17.87980469 3.11859375 16.75960938 3.2371875 15.60546875 3.359375 C14.13291041 3.49068594 12.66024802 3.62083379 11.1875 3.75 C10.44951172 3.83121094 9.71152344 3.91242188 8.95117188 3.99609375 C6.79296875 4.171875 6.79296875 4.171875 3 4 C0.98828125 2.015625 0.98828125 2.015625 0 0 Z " fill="#FDF5EE" transform="translate(413,304)"/>
<path d="M0 0 C1.32 0.66 2.64 1.32 4 2 C3.34 2 2.68 2 2 2 C1.7525 2.763125 1.505 3.52625 1.25 4.3125 C-0.12130672 7.26080945 -1.2351079 8.35834532 -4 10 C-4.66 10 -5.32 10 -6 10 C-6 10.66 -6 11.32 -6 12 C-7.65 12.33 -9.3 12.66 -11 13 C-9.63055898 10.05043472 -8.12169591 7.47531189 -6 5 C-5.34 5 -4.68 5 -4 5 C-3.67 4.01 -3.34 3.02 -3 2 C-2.01 1.34 -1.02 0.68 0 0 Z " fill="#F66619" transform="translate(390,198)"/>
<path d="M0 0 C7 0.4516129 7 0.4516129 9.9375 2.0625 C11.6726187 5.22653999 11.70688781 8.42403122 12 12 C7.30840284 8.61227103 2.9700218 5.21814817 -1 1 C-0.67 0.67 -0.34 0.34 0 0 Z " fill="#F9F2EB" transform="translate(461,193)"/>
<path d="M0 0 C4.29065121 2.05159779 8.23285284 4.06999665 12 7 C12.99 7.33 13.98 7.66 15 8 C15.33 7.01 15.66 6.02 16 5 C16 6.32 16 7.64 16 9 C8.0977277 10.58389772 8.0977277 10.58389772 4.0625 8.4375 C1.75518588 5.71067422 0.86123161 3.44492644 0 0 Z " fill="#202020" transform="translate(179,562)"/>
<path d="M0 0 C4.74130209 1.35262372 8.32288579 3.33354354 12.375 6.125 C13.43460938 6.84945313 14.49421875 7.57390625 15.5859375 8.3203125 C16.38257812 8.87460937 17.17921875 9.42890625 18 10 C17.67 11.32 17.34 12.64 17 14 C16.30519531 13.42507813 15.61039063 12.85015625 14.89453125 12.2578125 C10.9220278 9.15915259 6.69128186 6.51674232 2.44921875 3.8046875 C1.64097656 3.20914062 0.83273438 2.61359375 0 2 C0 1.34 0 0.68 0 0 Z " fill="#212121" transform="translate(0,291)"/>
<path d="M0 0 C0.99 0 1.98 0 3 0 C2.72894465 4.60794092 0.71586523 6.77984246 -2.33203125 9.9609375 C-4 11 -4 11 -6.19921875 10.6640625 C-6.79347656 10.44492187 -7.38773437 10.22578125 -8 10 C-7.04367001 8.70684939 -6.08486149 7.41553147 -5.125 6.125 C-4.59132813 5.40570313 -4.05765625 4.68640625 -3.5078125 3.9453125 C-2 2 -2 2 0 0 Z " fill="#090909" transform="translate(302,338)"/>
<path d="M0 0 C0.66 0 1.32 0 2 0 C1.45484328 7.08703739 -0.60918605 13.32796106 -3 20 C-3.33 20 -3.66 20 -4 20 C-4 16.04 -4 12.08 -4 8 C-3.34 7.67 -2.68 7.34 -2 7 C-2 6.01 -2 5.02 -2 4 C-1.34 4 -0.68 4 0 4 C0 2.68 0 1.36 0 0 Z " fill="#F86016" transform="translate(486,252)"/>
<path d="M0 0 C0.68359375 1.734375 0.68359375 1.734375 1 4 C-0.21484375 6.140625 -0.21484375 6.140625 -1.9375 8.25 C-2.50339844 8.95640625 -3.06929688 9.6628125 -3.65234375 10.390625 C-4.31943359 11.18726563 -4.31943359 11.18726563 -5 12 C-5.99 11.34 -6.98 10.68 -8 10 C-6.68745073 6.0623522 -5.1247232 3.7341328 -2 1 C-1.34 0.67 -0.68 0.34 0 0 Z " fill="#070707" transform="translate(269,375)"/>
<path d="M0 0 C3 2 3 2 3.6875 5.125 C3.790625 6.07375 3.89375 7.0225 4 8 C3.34 6.68 2.68 5.36 2 4 C1.34 4 0.68 4 0 4 C0.04640625 4.68707031 0.0928125 5.37414062 0.140625 6.08203125 C0.17671875 6.98308594 0.2128125 7.88414062 0.25 8.8125 C0.29640625 9.70582031 0.3428125 10.59914062 0.390625 11.51953125 C0 14 0 14 -2.015625 15.82421875 C-2.67046875 16.21222656 -3.3253125 16.60023438 -4 17 C-3.63223832 10.69732561 -2.83374078 5.66748157 0 0 Z " fill="#F46A1E" transform="translate(372,222)"/>
<path d="M0 0 C0.66 0.33 1.32 0.66 2 1 C-3.66962282 4.8820241 -9.38936911 7.73977189 -15.875 9.9375 C-16.51703369 10.16074951 -17.15906738 10.38399902 -17.82055664 10.61401367 C-21.20306821 11.70716679 -23.63291362 12.36206258 -27 11 C-26.05640625 10.70867187 -25.1128125 10.41734375 -24.140625 10.1171875 C-16.45925417 7.68366492 -9.39269314 4.92905994 -2.29296875 1.0390625 C-1.15794922 0.52472656 -1.15794922 0.52472656 0 0 Z " fill="#8E8E8E" transform="translate(349,283)"/>
<path d="M0 0 C0 3.51716303 -0.82445585 4.37121748 -3 7 C-2.34 7.66 -1.68 8.32 -1 9 C-2.65 10.32 -4.3 11.64 -6 13 C-7.32 12.01 -8.64 11.02 -10 10 C-6.7 6.7 -3.4 3.4 0 0 Z " fill="#202020" transform="translate(298,341)"/>
<path d="M0 0 C0.33 0 0.66 0 1 0 C1.66 2.97 2.32 5.94 3 9 C3.99 9 4.98 9 6 9 C6 9.66 6 10.32 6 11 C5.34 11 4.68 11 4 11 C4 11.66 4 12.32 4 13 C4.66 13.33 5.32 13.66 6 14 C3.6875 14.25 3.6875 14.25 1 14 C-0.71875 12.3125 -0.71875 12.3125 -2 10 C-1.85546875 7.421875 -1.85546875 7.421875 -1.1875 4.75 C-0.97480469 3.85796875 -0.76210937 2.9659375 -0.54296875 2.046875 C-0.36378906 1.37140625 -0.18460938 0.6959375 0 0 Z " fill="#252525" transform="translate(160,562)"/>
<path d="M0 0 C2.3125 -0.3125 2.3125 -0.3125 5 0 C6.875 2.25 6.875 2.25 8 5 C7.6875 7.3125 7.6875 7.3125 7 9 C6.01 9 5.02 9 4 9 C3.3309224 7.68872739 2.66480194 6.3759455 2 5.0625 C1.62875 4.33160156 1.2575 3.60070312 0.875 2.84765625 C0 1 0 1 0 0 Z " fill="#0C0C0C" transform="translate(140,439)"/>
<path d="M0 0 C1.65 1.65 3.3 3.3 5 5 C4 6 4 6 0.62109375 6.09765625 C-0.77347077 6.09098369 -2.16801743 6.07902532 -3.5625 6.0625 C-4.27341797 6.05798828 -4.98433594 6.05347656 -5.71679688 6.04882812 C-7.47790013 6.03700864 -9.23896036 6.01907263 -11 6 C-11 5.67 -11 5.34 -11 5 C-9.39125 4.87625 -9.39125 4.87625 -7.75 4.75 C-3.7261549 3.94523098 -2.51830747 3.12270126 0 0 Z " fill="#E4E4E4" transform="translate(220,548)"/>
<path d="M0 0 C5.78898419 -0.20674944 10.42932723 0.40837921 16 2 C16 2.33 16 2.66 16 3 C10.60539047 5.27141454 5.73842251 5.20413361 0 5 C0 4.67 0 4.34 0 4 C2.64 4 5.28 4 8 4 C8 3.34 8 2.68 8 2 C5.36 1.67 2.72 1.34 0 1 C0 0.67 0 0.34 0 0 Z M1 2 C3 3 3 3 3 3 Z " fill="#F0671D" transform="translate(432,186)"/>
<path d="M0 0 C1.20628008 2.33214148 2.1654738 4.49642139 3 7 C1.75 8.5 1.75 8.5 0 10 C-1.32 10 -2.64 10 -4 10 C-4.33 9.34 -4.66 8.68 -5 8 C-4.00390625 6.0546875 -4.00390625 6.0546875 -2.5625 3.875 C-2.08941406 3.15054687 -1.61632812 2.42609375 -1.12890625 1.6796875 C-0.75636719 1.12539063 -0.38382813 0.57109375 0 0 Z " fill="#161616" transform="translate(239,410)"/>
<path d="M0 0 C0.33 0 0.66 0 1 0 C0.52060632 4.71403788 0.03165952 8.66579301 -2 13 C-2.66 12.67 -3.32 12.34 -4 12 C-3.27272727 3.27272727 -3.27272727 3.27272727 0 0 Z " fill="#0F0F0F" transform="translate(200,496)"/>
<path d="M0 0 C0.66 0.33 1.32 0.66 2 1 C1.01 2.485 1.01 2.485 0 4 C0.30840599 6.15274948 0.30840599 6.15274948 1 8 C-0.32 8.99 -1.64 9.98 -3 11 C-3.12375 10.360625 -3.2475 9.72125 -3.375 9.0625 C-3.58125 8.381875 -3.7875 7.70125 -4 7 C-4.66 6.67 -5.32 6.34 -6 6 C-4.02 4.02 -2.04 2.04 0 0 Z M-2 4 C-1 6 -1 6 -1 6 Z " fill="#222222" transform="translate(281,358)"/>
<path d="M0 0 C0.99 0.495 0.99 0.495 2 1 C3.47180796 5.82425944 4.25376143 9.92477148 4 15 C3.34 15 2.68 15 2 15 C1.66048381 13.43883181 1.32867456 11.87598662 1 10.3125 C0.814375 9.44238281 0.62875 8.57226562 0.4375 7.67578125 C0.01027953 5.06287036 -0.07616201 2.64186962 0 0 Z " fill="#181818" transform="translate(174,523)"/>
<path d="M0 0 C0 0.66 0 1.32 0 2 C-1.8984375 3.5078125 -1.8984375 3.5078125 -4.375 5.125 C-5.59316406 5.93324219 -5.59316406 5.93324219 -6.8359375 6.7578125 C-9 8 -9 8 -11 8 C-10.9375 6.25 -10.9375 6.25 -10 4 C-6.7838181 1.55272534 -4.07605096 0 0 0 Z " fill="#242424" transform="translate(368,291)"/>
<path d="M0 0 C5.75 0.875 5.75 0.875 8 2 C8.33 1.34 8.66 0.68 9 0 C10.65 0.33 12.3 0.66 14 1 C14 1.33 14 1.66 14 2 C10.04 2.99 6.08 3.98 2 5 C2 4.34 2 3.68 2 3 C1.34 3 0.68 3 0 3 C0 2.01 0 1.02 0 0 Z " fill="#F9F4EB" transform="translate(402,185)"/>
<path d="M0 0 C3.63 0.33 7.26 0.66 11 1 C11 1.66 11 2.32 11 3 C6.71 3 2.42 3 -2 3 C-1.34 2.67 -0.68 2.34 0 2 C0 1.34 0 0.68 0 0 Z " fill="#040404" transform="translate(212,554)"/>
<path d="M0 0 C0 4.13781054 -1.71509607 5.20919996 -4.5 8.1875 C-5.3353125 9.08855469 -6.170625 9.98960937 -7.03125 10.91796875 C-7.6809375 11.60503906 -8.330625 12.29210937 -9 13 C-9.33 12.34 -9.66 11.68 -10 11 C-8.71284028 9.35063952 -7.42012981 7.70560953 -6.125 6.0625 C-5.04605469 4.68771484 -5.04605469 4.68771484 -3.9453125 3.28515625 C-2 1 -2 1 0 0 Z " fill="#909090" transform="translate(387,310)"/>
<path d="M0 0 C0.99 0.33 1.98 0.66 3 1 C2.37240135 3.92879371 1.41377341 6.36095629 0 9 C-1.32 9 -2.64 9 -4 9 C-4 5.00095031 -2.27413033 3.19799578 0 0 Z " fill="#FCE6D8" transform="translate(479,276)"/>
<path d="M0 0 C0.66 0.33 1.32 0.66 2 1 C0.68 3.64 -0.64 6.28 -2 9 C-2.99 8.67 -3.98 8.34 -5 8 C-5.3125 5.6875 -5.3125 5.6875 -5 3 C-2.625 1.125 -2.625 1.125 0 0 Z " fill="#F9F2E5" transform="translate(374,215)"/>
<path d="M0 0 C-3.27301919 2.96909598 -5.38065762 3.34354794 -9.75 3.1875 C-11.22726562 3.14689453 -11.22726562 3.14689453 -12.734375 3.10546875 C-13.85585938 3.05326172 -13.85585938 3.05326172 -15 3 C-12.41464321 1.27642881 -10.96188386 0.55264982 -8.0625 -0.1875 C-7.39347656 -0.36667969 -6.72445313 -0.54585937 -6.03515625 -0.73046875 C-3.75319112 -1.03268678 -2.17973341 -0.68756692 0 0 Z " fill="#F66D29" transform="translate(420,187)"/>
<path d="M0 0 C-1.98983893 1.98983893 -5.85542617 1.37391574 -8.5546875 1.5234375 C-11.33386981 2.06506728 -12.24950579 2.83216942 -14 5 C-14.66 3.35 -15.32 1.7 -16 0 C-13.7089095 -0.19441368 -11.41709663 -0.38033135 -9.125 -0.5625 C-7.21074219 -0.71912109 -7.21074219 -0.71912109 -5.2578125 -0.87890625 C-2 -1 -2 -1 0 0 Z " fill="#C9C9C9" transform="translate(227,557)"/>
<path d="M0 0 C-1.38009621 3.33523252 -2.84950652 5.18607951 -6 7 C-6.99 6.67 -7.98 6.34 -9 6 C-4.38461538 0 -4.38461538 0 0 0 Z " fill="#101010" transform="translate(341,309)"/>
<path d="M0 0 C0.66 0 1.32 0 2 0 C2 0.99 2 1.98 2 3 C3.32 3.66 4.64 4.32 6 5 C3.25 6.625 3.25 6.625 0 8 C-2.375 7.1875 -2.375 7.1875 -4 6 C-3.01 6 -2.02 6 -1 6 C-0.67 4.02 -0.34 2.04 0 0 Z " fill="#F46417" transform="translate(458,290)"/>
<path d="M0 0 C3.16115776 1.36983503 3.9927092 1.9890638 6 5 C5.67 5.99 5.34 6.98 5 8 C3.68 7.67 2.36 7.34 1 7 C0.67 5.68 0.34 4.36 0 3 C-0.99 3.495 -0.99 3.495 -2 4 C-1.34 2.68 -0.68 1.36 0 0 Z " fill="#F5621B" transform="translate(466,200)"/>
<path d="M0 0 C0.12375 0.639375 0.2475 1.27875 0.375 1.9375 C0.684375 2.9584375 0.684375 2.9584375 1 4 C1.66 4.33 2.32 4.66 3 5 C-1.21912747 4.5205537 -3.79663178 3.83374881 -7 1 C-4.53721199 -0.231394 -2.7204945 -0.07159196 0 0 Z " fill="#F77432" transform="translate(407,298)"/>
<path d="M0 0 C0 0.66 0 1.32 0 2 C-3.21451269 3.60725635 -6.43612536 3.05748185 -10 3 C-9.67 2.01 -9.34 1.02 -9 0 C-5.62182575 -0.84454356 -3.32534757 -1.10844919 0 0 Z " fill="#2D2D2D" transform="translate(150,557)"/>
<path d="M0 0 C0.33 0.66 0.66 1.32 1 2 C0.3409159 3.66967972 -0.32650839 5.33607955 -1 7 C-1 8.32 -1 9.64 -1 11 C-1.33 10.34 -1.66 9.68 -2 9 C-3.32 9 -4.64 9 -6 9 C-4.47291037 5.56404834 -2.40072955 2.88087546 0 0 Z " fill="#1D1D1D" transform="translate(263,378)"/>
<path d="M0 0 C0.66 0.33 1.32 0.66 2 1 C0.84826645 3.46800047 -0.04783565 5.04783565 -2 7 C-3.32 7 -4.64 7 -6 7 C-6 6.34 -6 5.68 -6 5 C-4.04072937 3.2856382 -2.04119788 1.61594832 0 0 Z " fill="#F9EDE5" transform="translate(470,288)"/>
<path d="M0 0 C3.65316671 1.24976756 4.78065836 1.67098753 7 5 C4.50907189 6.24546405 3.58919267 5.7767578 1 5 C1 4.34 1 3.68 1 3 C0.01 2.67 -0.98 2.34 -2 2 C-1.34 2 -0.68 2 0 2 C0 1.34 0 0.68 0 0 Z " fill="#F46118" transform="translate(458,194)"/>
<path d="M0 0 C0.66 0 1.32 0 2 0 C1.14285714 8.57142857 1.14285714 8.57142857 -1 12 C-1.33 9.36 -1.66 6.72 -2 4 C-1.34 4 -0.68 4 0 4 C0 2.68 0 1.36 0 0 Z " fill="#F47230" transform="translate(486,252)"/>
<path d="M0 0 C4.55737263 0.43820891 7.57653445 0.85041169 11 4 C5.62694301 4.35233161 5.62694301 4.35233161 3 4 C1 2 1 2 0 0 Z " fill="#FCE8DF" transform="translate(413,304)"/>
<path d="M0 0 C1.65 0 3.3 0 5 0 C5.33 1.65 5.66 3.3 6 5 C3.69 4.34 1.38 3.68 -1 3 C-0.67 2.01 -0.34 1.02 0 0 Z " fill="#FBEBE3" transform="translate(450,187)"/>
<path d="M0 0 C0.99 0.33 1.98 0.66 3 1 C2.25 2.9375 2.25 2.9375 1 5 C-1.125 5.75 -1.125 5.75 -3 6 C-3 5.34 -3 4.68 -3 4 C-2.34 4 -1.68 4 -1 4 C-0.67 2.68 -0.34 1.36 0 0 Z " fill="#0A0A0A" transform="translate(167,569)"/>
<path d="M0 0 C1.32 0.66 2.64 1.32 4 2 C3.34 3.32 2.68 4.64 2 6 C1.01 5.67 0.02 5.34 -1 5 C-0.67 3.35 -0.34 1.7 0 0 Z " fill="#F66013" transform="translate(464,287)"/>
<path d="M0 0 C2.18975773 3.28463659 2.99806563 6.20696275 4 10 C2.68 10.33 1.36 10.66 0 11 C0 7.33333333 0 3.66666667 0 0 Z " fill="#F8ECDB" transform="translate(369,261)"/>
<path d="M0 0 C0 0.99 0 1.98 0 3 C-1.32 3.33 -2.64 3.66 -4 4 C-4 3.34 -4 2.68 -4 2 C-5.65 2 -7.3 2 -9 2 C-9 1.67 -9 1.34 -9 1 C-2.25 -1.125 -2.25 -1.125 0 0 Z " fill="#161616" transform="translate(227,553)"/>
<path d="M0 0 C0.99 0 1.98 0 3 0 C3.33 2.31 3.66 4.62 4 7 C3.01 6.67 2.02 6.34 1 6 C0.67 4.02 0.34 2.04 0 0 Z " fill="#080808" transform="translate(164,490)"/>
<path d="M0 0 C1.32 1.32 2.64 2.64 4 4 C2.35 4.66 0.7 5.32 -1 6 C-1 5.34 -1 4.68 -1 4 C-1.99 3.67 -2.98 3.34 -4 3 C-3.34 2.67 -2.68 2.34 -2 2 C-1.34 2.33 -0.68 2.66 0 3 C0 2.01 0 1.02 0 0 Z " fill="#1E1E1E" transform="translate(72,345)"/>
<path d="M0 0 C0.66 0.33 1.32 0.66 2 1 C2 1.99 2 2.98 2 4 C0.02 4.99 0.02 4.99 -2 6 C-2 5.34 -2 4.68 -2 4 C-2.66 3.67 -3.32 3.34 -4 3 C-2.68 2.01 -1.36 1.02 0 0 Z " fill="#2B2B2B" transform="translate(343,305)"/>
<path d="M0 0 C1.98 0 3.96 0 6 0 C5.67 1.32 5.34 2.64 5 4 C2.525 3.01 2.525 3.01 0 2 C0 1.34 0 0.68 0 0 Z " fill="#131313" transform="translate(188,571)"/>
<path d="M0 0 C1.32 0 2.64 0 4 0 C4.66 1.65 5.32 3.3 6 5 C3.69 4.01 1.38 3.02 -1 2 C-0.67 1.34 -0.34 0.68 0 0 Z " fill="#060606" transform="translate(175,562)"/>
<path d="M0 0 C0.66 0 1.32 0 2 0 C2.33 1.65 2.66 3.3 3 5 C2.01 5 1.02 5 0 5 C-0.33 5.66 -0.66 6.32 -1 7 C-1.04254356 5.00045254 -1.04080783 2.99958364 -1 1 C-0.67 0.67 -0.34 0.34 0 0 Z " fill="#2D2D2D" transform="translate(164,485)"/>
<path d="M0 0 C0.66 0 1.32 0 2 0 C2.99 2.97 3.98 5.94 5 9 C1.96938234 6.97958823 1.27760233 6.24314437 0 3 C0 2.01 0 1.02 0 0 Z " fill="#F67237" transform="translate(481,220)"/>
<path d="M0 0 C0.33 0.66 0.66 1.32 1 2 C1.66 2.33 2.32 2.66 3 3 C2.34 3 1.68 3 1 3 C1 3.66 1 4.32 1 5 C-0.65 5.33 -2.3 5.66 -4 6 C-2.84826645 3.53199953 -1.95216435 1.95216435 0 0 Z " fill="#F36B24" transform="translate(383,205)"/>
<path d="M0 0 C0.66 0.66 1.32 1.32 2 2 C1.63318342 4.93453261 1.13562754 5.86437246 -1 8 C-1.625 5.125 -1.625 5.125 -2 2 C-1.34 1.34 -0.68 0.68 0 0 Z " fill="#3F3F3F" transform="translate(172,510)"/>
<path d="M0 0 C2 2 2 2 2.125 4.625 C2.08375 5.40875 2.0425 6.1925 2 7 C1.01 7.495 1.01 7.495 0 8 C-0.38063221 5.6739143 -0.71269945 3.33944736 -1 1 C-0.67 0.67 -0.34 0.34 0 0 Z " fill="#0C0C0C" transform="translate(170,504)"/>
<path d="M0 0 C0.99 0 1.98 0 3 0 C2.67 1.98 2.34 3.96 2 6 C1.01 6 0.02 6 -1 6 C-1.33 5.34 -1.66 4.68 -2 4 C-1.0625 1.875 -1.0625 1.875 0 0 Z " fill="#252525" transform="translate(200,492)"/>
<path d="M0 0 C0 1.65 0 3.3 0 5 C-0.66 5 -1.32 5 -2 5 C-2.33 5.66 -2.66 6.32 -3 7 C-3.6875 5.1875 -3.6875 5.1875 -4 3 C-1.64285714 0 -1.64285714 0 0 0 Z " fill="#161616" transform="translate(204,487)"/>
<path d="M0 0 C0.66 0.33 1.32 0.66 2 1 C0.25 5.875 0.25 5.875 -2 7 C-2.66 6.34 -3.32 5.68 -4 5 C-3.34 5 -2.68 5 -2 5 C-1.34 3.35 -0.68 1.7 0 0 Z " fill="#EEEEEE" transform="translate(253,386)"/>
<path d="M0 0 C1.32 1.32 2.64 2.64 4 4 C2.625 5.5 2.625 5.5 1 7 C0.34 7 -0.32 7 -1 7 C-0.67 4.69 -0.34 2.38 0 0 Z " fill="#191919" transform="translate(96,369)"/>
</svg>
